<svg width="40" height="40" viewBox="0 0 40 40" fill="none" xmlns="http://www.w3.org/2000/svg">
<path d="M36.666 30.0084C36.666 30.9251 35.9227 31.6667 35.0077 31.6667L21.6577 31.6667C21.2179 31.6667 20.7961 31.492 20.4851 31.181C20.1741 30.87 19.9993 30.4482 19.9993 30.0084C19.9993 29.5686 20.1741 29.1468 20.4851 28.8358C20.7961 28.5248 21.2179 28.3501 21.6577 28.3501L35.0077 28.3501C35.4475 28.3501 35.8693 28.5248 36.1803 28.8358C36.4913 29.1468 36.666 29.5686 36.666 30.0084Z" fill="black"/>
<path d="M36.666 20.0001C36.666 20.9168 35.9227 21.6584 35.0077 21.6584L4.99102 21.6584C4.5512 21.6584 4.12939 21.4837 3.8184 21.1727C3.5074 20.8617 3.33268 20.4399 3.33268 20.0001C3.33268 19.5603 3.5074 19.1385 3.8184 18.8275C4.12939 18.5165 4.5512 18.3418 4.99102 18.3418L35.0077 18.3418C35.4475 18.3418 35.8693 18.5165 36.1803 18.8275C36.4913 19.1385 36.666 19.5603 36.666 20.0001Z" fill="black"/>
<path d="M35.0077 11.6501C35.4475 11.6501 35.8693 11.4754 36.1803 11.1644C36.4913 10.8534 36.666 10.4316 36.666 9.99181C36.666 9.552 36.4913 9.13019 36.1803 8.81919C35.8693 8.5082 35.4475 8.33348 35.0077 8.33348L14.991 8.33348C14.5512 8.33348 14.1294 8.5082 13.8184 8.81919C13.5074 9.13019 13.3327 9.55199 13.3327 9.99181C13.3327 10.4316 13.5074 10.8534 13.8184 11.1644C14.1294 11.4754 14.5512 11.6501 14.991 11.6501L35.0077 11.6501Z" fill="black"/>
</svg>
