<svg width="126" height="36" viewBox="0 0 126 36" fill="none" xmlns="http://www.w3.org/2000/svg">
<path d="M18 36C27.9411 36 36 27.9411 36 18C36 8.05887 27.9411 0 18 0C8.05887 0 0 8.05887 0 18C0 27.9411 8.05887 36 18 36Z" fill="black"/>
<path d="M24.5 19C27.5376 19 30 16.5376 30 13.5C30 10.4624 27.5376 8 24.5 8C21.4624 8 19 10.4624 19 13.5C19 16.5376 21.4624 19 24.5 19Z" fill="#F4F7F9"/>
<path d="M11.5 19C14.5376 19 17 16.5376 17 13.5C17 10.4624 14.5376 8 11.5 8C8.46243 8 6 10.4624 6 13.5C6 16.5376 8.46243 19 11.5 19Z" fill="#F4F7F9"/>
<path d="M23.109 23.4241C20.346 22.7571 14.236 23.3641 11.947 27.8291C11.865 27.9871 11.907 28.1821 12.047 28.2931C12.115 28.3481 12.198 28.3751 12.281 28.3751C12.366 28.3751 12.452 28.3461 12.522 28.2881C15.606 25.7081 19.958 25.7081 22.558 25.7081C24.193 25.7081 25.094 25.7081 25.094 25.0001C25.094 24.2921 24.389 23.7321 23.109 23.4241ZM10.5 13.0001C11.881 13.0001 13 11.8811 13 10.5001C13 9.24809 12.077 8.22009 10.876 8.03809C10.086 8.12709 9.35 8.38609 8.698 8.77409C8.268 9.22309 8 9.82909 8 10.5001C8 11.8811 9.119 13.0001 10.5 13.0001ZM23.5 13.0001C24.881 13.0001 26 11.8811 26 10.5001C26 9.24809 25.077 8.22009 23.876 8.03809C23.087 8.12709 22.35 8.38609 21.699 8.77409C21.268 9.22309 21 9.82909 21 10.5001C21 11.8811 22.119 13.0001 23.5 13.0001Z" fill="black"/>
<path d="M49.888 25.24C51.472 25.24 52.576 24.76 53.36 24.024C54.128 23.304 54.56 22.328 54.624 21.32H52.352C52.208 22.52 51.248 23.336 49.888 23.336C47.968 23.336 46.752 21.656 46.752 19.32C46.752 17.048 47.76 15.288 49.872 15.288C51.216 15.288 52.08 16.04 52.288 17.192H54.592C54.352 15.016 52.688 13.336 49.872 13.336C46.496 13.336 44.384 15.928 44.384 19.32C44.384 22.76 46.672 25.24 49.888 25.24ZM60.8415 25.256C64.2175 25.256 66.3455 22.728 66.3455 19.304C66.3455 15.88 64.2175 13.336 60.8415 13.336C57.4655 13.336 55.3215 15.88 55.3215 19.304C55.3215 22.728 57.4655 25.256 60.8415 25.256ZM60.8575 23.352C58.7615 23.352 57.6895 21.576 57.6895 19.304C57.6895 17.016 58.7615 15.24 60.8575 15.24C62.9535 15.24 63.9775 17.016 63.9775 19.304C63.9775 21.576 62.9535 23.352 60.8575 23.352ZM67.6144 25H69.9024V19.096C69.9024 18.296 69.8384 17.096 69.8384 17.096H69.8704C69.8704 17.096 70.3184 18.072 70.6864 18.68L74.5904 25H76.8304V13.56H74.5424V19.56C74.5424 20.36 74.6064 21.544 74.6064 21.544H74.5744C74.5744 21.544 74.1424 20.568 73.7744 19.944L69.9664 13.56H67.6144V25Z" fill="black"/>
<path d="M78.992 25H79.824V19.416H85.376V18.696H79.824V14.296H86.256V13.56H78.992V25ZM91.5999 25.176C94.0799 25.176 95.7279 23.992 95.7279 21.4V13.56H94.8959V21.336C94.8959 23.576 93.6159 24.44 91.6479 24.44C89.5679 24.44 88.3999 23.576 88.3999 21.336V13.56H87.5679V21.4C87.5679 23.928 89.1039 25.176 91.5999 25.176ZM101.457 25.208C103.825 25.208 105.377 23.8 105.377 21.848C105.377 19.56 103.649 19.032 101.425 18.616C99.169 18.2 98.257 17.752 98.257 16.344C98.257 15.032 99.345 14.072 101.217 14.072C102.817 14.072 104.033 14.92 104.193 16.52H105.025C104.865 14.648 103.521 13.336 101.201 13.336C98.945 13.336 97.409 14.568 97.409 16.36C97.409 18.264 98.737 18.936 100.913 19.336C103.633 19.848 104.513 20.264 104.513 21.912C104.513 23.528 103.185 24.472 101.441 24.472C99.313 24.472 97.921 23.32 97.841 21.384H96.993C97.121 23.576 98.593 25.208 101.457 25.208ZM106.914 25H114.658V24.232H107.746V19.464H113.954V18.744H107.746V14.296H114.498V13.56H106.914V25ZM116.226 25H120.114C123.442 25 124.994 22.68 124.994 19.32C124.994 15.96 123.554 13.56 120.226 13.56H116.226V25ZM117.058 24.264V14.312H120.194C122.962 14.312 124.13 16.296 124.13 19.32C124.13 22.344 122.85 24.264 120.082 24.264H117.058Z" fill="black"/>
</svg>
